<svg id="logo" class="fill-current stroke-current w-[160px]" version="1.1" xmlns="http://www.w3.org/2000/svg" xmlns:xlink="http://www.w3.org/1999/xlink" x="0px" y="0px" viewBox="0 0 286.3 85" xml:space="preserve">
          <switch>
            <g>
              <g class="logo-image">
                <circle fill="white" cx="42.5" cy="42.5" r="40"></circle>
                <path d="M42.3,83.4c-22.6,0-40.9-18.4-40.9-40.9c0-22.6,18.4-40.9,40.9-40.9c22.6,0,40.9,18.4,40.9,40.9
                  C83.3,65.1,64.9,83.4,42.3,83.4z M42.3,5.8C22.1,5.8,5.7,22.3,5.7,42.5s16.5,36.7,36.7,36.7S79,62.7,79,42.5S62.6,5.8,42.3,5.8z
                  "></path>
                <g>
                  <g>
                    <polygon points="38.8,69.8 38.8,31.7 22.3,31.7 22.3,38.5 29.8,38.5 29.8,69.8 						"></polygon>
                    <path d="M34.1,13.2c-3.3,0-6,2.6-6,5.9c0,3.3,2.6,6,5.9,6c3.3,0,6-2.6,6-6
                      C39.9,15.9,37.3,13.2,34.1,13.2z"></path>
                  </g>
                  <g>
                    <polygon points="45.9,69.8 45.9,31.7 62.4,31.7 62.4,38.5 54.9,38.5 54.9,69.8 						"></polygon>
                    <path d="M50.6,13.2c3.3,0,6,2.6,6,5.9c0,3.3-2.6,6-5.9,6c-3.3,0-6-2.6-6-6
                      C44.8,15.9,47.4,13.2,50.6,13.2z"></path>
                  </g>
                </g>
              </g>
              <g class="logo-text stroke-current" stroke="stroke-current">
                <path d="M136.1,63.6c-4,0-5.3-2.6-5.3-6V38.5h10.6v-6.7h-10.6v-6.7h-9c0,7,0,29.1,0,32.7
                  c0,4.2,1.6,7.5,3.8,9.7c2.3,2.2,5.6,3.3,9.8,3.3c5.1,0,8.4-1.8,10.6-4.2l-4.7-6C140.2,62.1,138.5,63.6,136.1,63.6z"></path>
                <path d="M217.7,30.7c-4.9,0-8.2,1.6-10.4,3.8c-2.2-2.2-5.5-3.8-10.4-3.8c-15,0-14.9,12.1-14.9,15
                  s0,24.1,0,24.1h9V45.7c0-8.5,4.9-8.3,5.9-8.3c1,0,5.9-0.3,5.9,8.3v24.1h0h9h0V45.7c0-8.5,4.9-8.3,5.9-8.3c1,0,5.9-0.3,5.9,8.3
                  v24.1h9c0,0,0-21.2,0-24.1C232.6,42.8,232.7,30.7,217.7,30.7z"></path>
                <path d="M273.2,46.4c-4.3-1.4-6-2.5-6-5.2c0-2,1.1-3.8,4.3-3.8c3.2,0,4.5,3.3,5.1,4.8
                  c2.7-1.5,5.3-2.9,6.6-3.6c-2.5-6-6.3-7.9-12-7.9c-8,0-11.7,5.5-11.7,10.6c0,6.5,2.9,9.8,11.2,12.2c6,1.8,6.5,4.7,6.2,6.2
                  c-0.3,1.7-1.6,3.6-5.3,3.6c-3.6,0-5.8-3.8-6.8-5.4c-1.8,1.1-3.4,2.1-6.4,3.8c2.1,5,6.8,9.1,13.5,9.1c7.9,0,12.9-5.1,12.9-12.1
                  C284.9,51,279.6,48.5,273.2,46.4z"></path>
                <g>
                  <polygon points="239.7,69.8 239.7,31.7 256.2,31.7 256.2,38.5 248.7,38.5 248.7,69.8 				"></polygon>
                  <path d="M244.4,13.2c3.3,0,6,2.6,6,5.9c0,3.3-2.6,6-5.9,6c-3.3,0-6-2.6-6-6
                    C238.6,15.9,241.2,13.2,244.4,13.2z"></path>
                </g>
                <g>
                  <polygon points="114.7,69.8 114.7,31.7 98.1,31.7 98.1,38.5 105.7,38.5 105.7,69.8 				"></polygon>
                  <path d="M110,13.2c-3.3,0-6,2.6-6,5.9c0,3.3,2.6,6,5.9,6c3.3,0,6-2.6,6-6C115.8,15.9,113.2,13.2,110,13.2
                    z"></path>
                </g>
                <path d="M176.4,52.4v-3.7c0-12.3-4.7-18-14.8-18c-9.3,0-14.7,6.6-14.7,18v4c0,11.5,5.8,18.2,15.8,18.2
                  c6.6,0,10.8-3.7,12.7-7.9c-2.2-1.4-4.6-2.8-6.1-3.8c-1,1.7-2.9,4.4-6.7,4.4c-5.8,0-7-5.9-7-10.9v-0.2H176.4z M155.7,45.7
                  c0.2-7.1,3.3-8.2,6-8.2c2.6,0,5.9,1,6,8.2H155.7z"></path>
              </g>
            </g>
          </switch>
        </svg>